<svg xmlns="http://www.w3.org/2000/svg" viewBox="0 0 64 64" fill="none" aria-hidden="true">
  <g stroke="currentColor" stroke-width="1.4" stroke-linecap="round" stroke-linejoin="round">
    <!-- Dome top spire -->
    <line x1="32" y1="6" x2="32" y2="10"/>
    <circle cx="32" cy="11.5" r="1.2" fill="currentColor" stroke="none"/>
    <!-- Dome -->
    <path d="M18 32c0-9 6-15 14-15s14 6 14 15"/>
    <path d="M22 32c0-7 4.5-12 10-12s10 5 10 12"/>
    <!-- Drum / columns row -->
    <line x1="14" y1="33" x2="50" y2="33"/>
    <line x1="14" y1="36" x2="50" y2="36"/>
    <!-- Columns -->
    <line x1="18" y1="36" x2="18" y2="52"/>
    <line x1="24" y1="36" x2="24" y2="52"/>
    <line x1="32" y1="36" x2="32" y2="52"/>
    <line x1="40" y1="36" x2="40" y2="52"/>
    <line x1="46" y1="36" x2="46" y2="52"/>
    <!-- Base / steps -->
    <line x1="12" y1="52" x2="52" y2="52"/>
    <line x1="10" y1="55" x2="54" y2="55"/>
    <line x1="8" y1="58" x2="56" y2="58"/>
  </g>
</svg>
